<?xml version="1.0" encoding="utf-8"?>
<!-- Generator: Adobe Illustrator 16.0.0, SVG Export Plug-In . SVG Version: 6.00 Build 0)  -->
<!DOCTYPE svg PUBLIC "-//W3C//DTD SVG 1.1//EN" "http://www.w3.org/Graphics/SVG/1.1/DTD/svg11.dtd">
<svg version="1.1" id="Layer_1" xmlns="http://www.w3.org/2000/svg" xmlns:xlink="http://www.w3.org/1999/xlink" x="0px" y="0px"
	 width="18.25px" height="29.438px" viewBox="0 0 18.25 29.438" enable-background="new 0 0 18.25 29.438" xml:space="preserve">
<path fill="#010202" d="M17.043,3.5L6.068,14.474l10.975,10.974c0.167,0.168,0.279,0.419,0.279,0.643s-0.112,0.475-0.279,0.643
	l-1.396,1.396c-0.168,0.168-0.419,0.279-0.643,0.279c-0.223,0-0.475-0.111-0.643-0.279L1.349,15.116
	c-0.167-0.168-0.279-0.419-0.279-0.643s0.112-0.475,0.279-0.643L14.361,0.819c0.168-0.168,0.42-0.279,0.643-0.279
	c0.224,0,0.475,0.111,0.643,0.279l1.396,1.396c0.167,0.168,0.279,0.392,0.279,0.643C17.322,3.081,17.21,3.332,17.043,3.5z"/>
</svg>
