<?xml version="1.0" encoding="utf-8"?>
<!-- Generator: Adobe Illustrator 16.0.0, SVG Export Plug-In . SVG Version: 6.00 Build 0)  -->
<!DOCTYPE svg PUBLIC "-//W3C//DTD SVG 1.1//EN" "http://www.w3.org/Graphics/SVG/1.1/DTD/svg11.dtd">
<svg version="1.1" id="Layer_1" xmlns="http://www.w3.org/2000/svg" xmlns:xlink="http://www.w3.org/1999/xlink" x="0px" y="0px"
	 width="28.5px" height="17.125px" viewBox="0 0 28.5 17.125" enable-background="new 0 0 28.5 17.125" xml:space="preserve">
<path fill="#010202" d="M27.943,3.386L14.932,16.398c-0.168,0.168-0.419,0.278-0.642,0.278c-0.224,0-0.475-0.11-0.642-0.278
	L0.634,3.386C0.466,3.218,0.355,2.967,0.355,2.743s0.111-0.475,0.279-0.643L2.03,0.705c0.168-0.168,0.391-0.279,0.642-0.279
	c0.224,0,0.475,0.111,0.643,0.279L14.29,11.679L25.263,0.705c0.168-0.168,0.419-0.279,0.643-0.279s0.476,0.111,0.642,0.279
	l1.396,1.396c0.168,0.168,0.279,0.419,0.279,0.643S28.111,3.218,27.943,3.386"/>
</svg>
