<?xml version="1.0" encoding="utf-8"?>
<!-- Generator: Adobe Illustrator 16.0.0, SVG Export Plug-In . SVG Version: 6.00 Build 0)  -->
<!DOCTYPE svg PUBLIC "-//W3C//DTD SVG 1.1//EN" "http://www.w3.org/Graphics/SVG/1.1/DTD/svg11.dtd">
<svg version="1.1" id="Layer_1" xmlns="http://www.w3.org/2000/svg" xmlns:xlink="http://www.w3.org/1999/xlink" x="0px" y="0px"
	 width="69px" height="139px" viewBox="0 0 69 139" enable-background="new 0 0 69 139" xml:space="preserve">
<path fill="#010202" d="M17.429,60.863L6.456,71.837l10.974,10.974c0.168,0.168,0.279,0.419,0.279,0.643
	c0,0.223-0.111,0.475-0.279,0.643l-1.396,1.396c-0.167,0.168-0.419,0.279-0.642,0.279c-0.224,0-0.475-0.111-0.643-0.279
	L1.736,72.479c-0.167-0.167-0.279-0.418-0.279-0.642s0.112-0.475,0.279-0.643l13.012-13.012c0.168-0.167,0.419-0.279,0.643-0.279
	c0.223,0,0.475,0.112,0.642,0.279l1.396,1.396c0.168,0.168,0.279,0.391,0.279,0.643C17.708,60.444,17.597,60.695,17.429,60.863z"/>
<line fill="#EDECE4" x1="67.167" y1="0" x2="67.167" y2="139"/>
<line fill="none" stroke="#343434" stroke-miterlimit="10" x1="67.167" y1="0" x2="67.167" y2="139"/>
<g>
	<path fill="#343434" d="M24.134,69.197v2.539h2.935v-2.539h0.792v6.068h-0.792V72.42h-2.935v2.845h-0.783v-6.068H24.134z"/>
	<path fill="#343434" d="M30.875,73.355l-0.63,1.909h-0.81l2.062-6.068h0.945l2.071,6.068h-0.837l-0.648-1.909H30.875z
		 M32.865,72.744l-0.594-1.746c-0.135-0.396-0.225-0.757-0.315-1.108h-0.018c-0.09,0.36-0.189,0.729-0.306,1.098l-0.594,1.756
		H32.865z"/>
	<path fill="#343434" d="M35.833,69.557c0.414-0.27,0.945-0.459,1.603-0.459c1.053,0,1.782,0.549,1.782,1.485
		c0,0.747-0.54,1.314-1.251,1.477v0.019c0.855,0.09,1.477,0.648,1.477,1.521c0,1.26-1.09,1.764-2.197,1.764
		c-0.549,0-1.125-0.117-1.584-0.396l0.207-0.612c0.324,0.189,0.864,0.369,1.359,0.369c0.9,0,1.396-0.486,1.396-1.152
		c0-0.909-0.874-1.17-1.647-1.17h-0.36v-0.595h0.36c0.801,0,1.422-0.495,1.422-1.116c0-0.612-0.432-0.955-1.089-0.955
		c-0.46,0-0.937,0.189-1.261,0.396L35.833,69.557z"/>
	<path fill="#343434" d="M42.152,73.355l-0.63,1.909h-0.811l2.062-6.068h0.945l2.071,6.068h-0.838l-0.648-1.909H42.152z
		 M44.141,72.744l-0.594-1.746c-0.135-0.396-0.225-0.757-0.315-1.108h-0.018c-0.091,0.36-0.189,0.729-0.306,1.098l-0.595,1.756
		H44.141z"/>
	<path fill="#343434" d="M51.495,69.197v5.428l0.531,0.019l-0.055,2.079H51.36l-0.055-1.458h-3.826l-0.054,1.458h-0.612
		l-0.054-2.079l0.459-0.019c0.226-0.414,0.45-0.855,0.595-1.332c0.207-0.702,0.287-1.512,0.287-2.557v-1.54H51.495z M48.83,70.988
		c0,0.973-0.09,1.791-0.306,2.476c-0.127,0.423-0.315,0.829-0.495,1.152h2.683v-4.771H48.83V70.988z"/>
</g>
</svg>
